<svg id="visual" viewBox="0 0 540 960" width="540" height="960" xmlns="http://www.w3.org/2000/svg" xmlns:xlink="http://www.w3.org/1999/xlink" version="1.1"><path d="M0 97L45 98.7C90 100.3 180 103.7 270 108.5C360 113.3 450 119.7 495 122.8L540 126L540 0L495 0C450 0 360 0 270 0C180 0 90 0 45 0L0 0Z" fill="#fcd34d"></path><path d="M0 366L45 372.3C90 378.7 180 391.3 270 384.8C360 378.3 450 352.7 495 339.8L540 327L540 124L495 120.8C450 117.7 360 111.3 270 106.5C180 101.7 90 98.3 45 96.7L0 95Z" fill="#feda72"></path><path d="M0 558L45 562.8C90 567.7 180 577.3 270 583.7C360 590 450 593 495 594.5L540 596L540 325L495 337.8C450 350.7 360 376.3 270 382.8C180 389.3 90 376.7 45 370.3L0 364Z" fill="#ffe194"></path><path d="M0 711L45 714.3C90 717.7 180 724.3 270 727.7C360 731 450 731 495 731L540 731L540 594L495 592.5C450 591 360 588 270 581.7C180 575.3 90 565.7 45 560.8L0 556Z" fill="#fee8b5"></path><path d="M0 779L45 790.2C90 801.3 180 823.7 270 833.2C360 842.7 450 839.3 495 837.7L540 836L540 729L495 729C450 729 360 729 270 725.7C180 722.3 90 715.7 45 712.3L0 709Z" fill="#fbefd6"></path><path d="M0 961L45 961C90 961 180 961 270 961C360 961 450 961 495 961L540 961L540 834L495 835.7C450 837.3 360 840.7 270 831.2C180 821.7 90 799.3 45 788.2L0 777Z" fill="#f6f6f6"></path></svg>